<?xml version="1.0" encoding="UTF-8" standalone="no"?>
<!DOCTYPE svg PUBLIC "-//W3C//DTD SVG 1.1//EN" "http://www.w3.org/Graphics/SVG/1.1/DTD/svg11.dtd">
<svg width="100%" height="100%" viewBox="0 0 2048 2048" version="1.1" xmlns="http://www.w3.org/2000/svg" xmlns:xlink="http://www.w3.org/1999/xlink" xml:space="preserve" xmlns:serif="http://www.serif.com/" style="fill-rule:evenodd;clip-rule:evenodd;stroke-linejoin:round;stroke-miterlimit:2;">
    <g transform="matrix(14.2553,0,0,14.2553,-27105,-11158.3)">
        <path d="M1973.67,784.373C2012.79,784.373 2044.55,816.132 2044.55,855.25C2044.55,894.368 2012.79,926.126 1973.67,926.126C1934.55,926.126 1902.79,894.368 1902.79,855.25C1902.79,816.132 1934.55,784.373 1973.67,784.373ZM1973.67,819.811C1993.23,819.811 2009.11,835.691 2009.11,855.25C2009.11,874.809 1993.23,890.688 1973.67,890.688C1954.11,890.688 1938.23,874.809 1938.23,855.25C1938.23,835.691 1954.11,819.811 1973.67,819.811Z" style="fill:rgb(37,37,37);"/>
    </g>
</svg>
